<svg xmlns="http://www.w3.org/2000/svg" viewBox="0 0 640 410" role="img">
<defs><linearGradient id="sky" x1="0" y1="0" x2="0" y2="1"><stop offset="0" stop-color="#fdeedd"/><stop offset="1" stop-color="#fff8ee"/></linearGradient></defs>
<rect width="640" height="340" fill="url(#sky)"/>
<circle cx="371" cy="64" r="26" fill="#f6b352"/>
<g fill="#ffffff" opacity=".9"><ellipse cx="150" cy="70" rx="34" ry="12"/><ellipse cx="185" cy="62" rx="24" ry="10"/><ellipse cx="500" cy="96" rx="40" ry="12"/><ellipse cx="538" cy="88" rx="26" ry="9"/></g>
<rect y="340" width="640" height="70" fill="#ecd9c3"/>
<rect x="104" y="188" width="102" height="152" fill="#f0e7da"/>
<rect x="116" y="202" width="16" height="22" rx="1.5" fill="#ecc9a3"/><rect x="140" y="202" width="16" height="22" rx="1.5" fill="#ecc9a3"/><rect x="164" y="202" width="16" height="22" rx="1.5" fill="#ecc9a3"/><rect x="188" y="202" width="16" height="22" rx="1.5" fill="#ecc9a3"/><rect x="116" y="236" width="16" height="22" rx="1.5" fill="#ecc9a3"/><rect x="140" y="236" width="16" height="22" rx="1.5" fill="#ecc9a3"/><rect x="164" y="236" width="16" height="22" rx="1.5" fill="#ecc9a3"/><rect x="188" y="236" width="16" height="22" rx="1.5" fill="#ecc9a3"/><rect x="116" y="270" width="16" height="22" rx="1.5" fill="#ecc9a3"/><rect x="140" y="270" width="16" height="22" rx="1.5" fill="#ecc9a3"/><rect x="164" y="270" width="16" height="22" rx="1.5" fill="#ecc9a3"/><rect x="188" y="270" width="16" height="22" rx="1.5" fill="#ecc9a3"/><rect x="116" y="304" width="16" height="22" rx="1.5" fill="#ecc9a3"/><rect x="140" y="304" width="16" height="22" rx="1.5" fill="#ecc9a3"/><rect x="164" y="304" width="16" height="22" rx="1.5" fill="#ecc9a3"/><rect x="188" y="304" width="16" height="22" rx="1.5" fill="#ecc9a3"/><rect x="116" y="338" width="16" height="22" rx="1.5" fill="#ecc9a3"/><rect x="140" y="338" width="16" height="22" rx="1.5" fill="#ecc9a3"/><rect x="164" y="338" width="16" height="22" rx="1.5" fill="#ecc9a3"/><rect x="188" y="338" width="16" height="22" rx="1.5" fill="#ecc9a3"/><rect x="116" y="372" width="16" height="22" rx="1.5" fill="#ecc9a3"/><rect x="140" y="372" width="16" height="22" rx="1.5" fill="#ecc9a3"/><rect x="164" y="372" width="16" height="22" rx="1.5" fill="#ecc9a3"/><rect x="188" y="372" width="16" height="22" rx="1.5" fill="#ecc9a3"/>
<rect x="100" y="180" width="110" height="8" rx="2" fill="#b06a3b"/>
<rect x="434" y="212" width="102" height="128" fill="#f0e7da"/>
<rect x="446" y="226" width="16" height="22" rx="1.5" fill="#ecc9a3"/><rect x="470" y="226" width="16" height="22" rx="1.5" fill="#ecc9a3"/><rect x="494" y="226" width="16" height="22" rx="1.5" fill="#ecc9a3"/><rect x="518" y="226" width="16" height="22" rx="1.5" fill="#ecc9a3"/><rect x="446" y="260" width="16" height="22" rx="1.5" fill="#ecc9a3"/><rect x="470" y="260" width="16" height="22" rx="1.5" fill="#ecc9a3"/><rect x="494" y="260" width="16" height="22" rx="1.5" fill="#ecc9a3"/><rect x="518" y="260" width="16" height="22" rx="1.5" fill="#ecc9a3"/><rect x="446" y="294" width="16" height="22" rx="1.5" fill="#ecc9a3"/><rect x="470" y="294" width="16" height="22" rx="1.5" fill="#ecc9a3"/><rect x="494" y="294" width="16" height="22" rx="1.5" fill="#ecc9a3"/><rect x="518" y="294" width="16" height="22" rx="1.5" fill="#ecc9a3"/><rect x="446" y="328" width="16" height="22" rx="1.5" fill="#ecc9a3"/><rect x="470" y="328" width="16" height="22" rx="1.5" fill="#ecc9a3"/><rect x="494" y="328" width="16" height="22" rx="1.5" fill="#ecc9a3"/><rect x="518" y="328" width="16" height="22" rx="1.5" fill="#ecc9a3"/><rect x="446" y="362" width="16" height="22" rx="1.5" fill="#ecc9a3"/><rect x="470" y="362" width="16" height="22" rx="1.5" fill="#ecc9a3"/><rect x="494" y="362" width="16" height="22" rx="1.5" fill="#ecc9a3"/><rect x="518" y="362" width="16" height="22" rx="1.5" fill="#ecc9a3"/>
<rect x="430" y="204" width="110" height="8" rx="2" fill="#b06a3b"/>
<rect x="206" y="76" width="228" height="264" fill="#fdfaf5"/>
<rect x="200" y="66" width="240" height="12" rx="2" fill="#b06a3b"/>
<rect x="292" y="92" width="56" height="56" rx="8" fill="#fff" stroke="#b06a3b" stroke-width="2"/>
<rect x="314" y="104" width="12" height="32" rx="2" fill="#d84b4b"/>
<rect x="303" y="114" width="34" height="12" rx="2" fill="#d84b4b"/>
<rect x="222" y="170" width="20" height="24" rx="1.5" fill="#ecc9a3"/><rect x="254" y="170" width="20" height="24" rx="1.5" fill="#ecc9a3"/><rect x="286" y="170" width="20" height="24" rx="1.5" fill="#ecc9a3"/><rect x="318" y="170" width="20" height="24" rx="1.5" fill="#ecc9a3"/><rect x="350" y="170" width="20" height="24" rx="1.5" fill="#ecc9a3"/><rect x="382" y="170" width="20" height="24" rx="1.5" fill="#ecc9a3"/><rect x="222" y="207" width="20" height="24" rx="1.5" fill="#ecc9a3"/><rect x="254" y="207" width="20" height="24" rx="1.5" fill="#ecc9a3"/><rect x="286" y="207" width="20" height="24" rx="1.5" fill="#ecc9a3"/><rect x="318" y="207" width="20" height="24" rx="1.5" fill="#ecc9a3"/><rect x="350" y="207" width="20" height="24" rx="1.5" fill="#ecc9a3"/><rect x="382" y="207" width="20" height="24" rx="1.5" fill="#ecc9a3"/><rect x="222" y="244" width="20" height="24" rx="1.5" fill="#ecc9a3"/><rect x="254" y="244" width="20" height="24" rx="1.5" fill="#ecc9a3"/><rect x="286" y="244" width="20" height="24" rx="1.5" fill="#ecc9a3"/><rect x="318" y="244" width="20" height="24" rx="1.5" fill="#ecc9a3"/><rect x="350" y="244" width="20" height="24" rx="1.5" fill="#ecc9a3"/><rect x="382" y="244" width="20" height="24" rx="1.5" fill="#ecc9a3"/><rect x="222" y="281" width="20" height="24" rx="1.5" fill="#ecc9a3"/><rect x="254" y="281" width="20" height="24" rx="1.5" fill="#ecc9a3"/><rect x="286" y="281" width="20" height="24" rx="1.5" fill="#ecc9a3"/><rect x="318" y="281" width="20" height="24" rx="1.5" fill="#ecc9a3"/><rect x="350" y="281" width="20" height="24" rx="1.5" fill="#ecc9a3"/><rect x="382" y="281" width="20" height="24" rx="1.5" fill="#ecc9a3"/><rect x="222" y="318" width="20" height="24" rx="1.5" fill="#ecc9a3"/><rect x="254" y="318" width="20" height="24" rx="1.5" fill="#ecc9a3"/><rect x="286" y="318" width="20" height="24" rx="1.5" fill="#ecc9a3"/><rect x="318" y="318" width="20" height="24" rx="1.5" fill="#ecc9a3"/><rect x="350" y="318" width="20" height="24" rx="1.5" fill="#ecc9a3"/><rect x="382" y="318" width="20" height="24" rx="1.5" fill="#ecc9a3"/><rect x="222" y="355" width="20" height="24" rx="1.5" fill="#ecc9a3"/><rect x="254" y="355" width="20" height="24" rx="1.5" fill="#ecc9a3"/><rect x="318" y="355" width="20" height="24" rx="1.5" fill="#ecc9a3"/><rect x="350" y="355" width="20" height="24" rx="1.5" fill="#ecc9a3"/><rect x="382" y="355" width="20" height="24" rx="1.5" fill="#ecc9a3"/>
<rect x="288" y="300" width="64" height="40" rx="2" fill="#b06a3b"/>
<rect x="296" y="306" width="48" height="34" rx="1.5" fill="#e9f2ef"/>
<rect x="270" y="288" width="100" height="8" rx="2" fill="#b06a3b"/>
<g stroke="#8f6b3f" stroke-width="5"><line x1="70" y1="340" x2="70" y2="296"/><line x1="572" y1="340" x2="572" y2="304"/></g>
<circle cx="70" cy="278" r="30" fill="#8f6b3f"/><circle cx="572" cy="286" r="26" fill="#8f6b3f"/>
<ellipse cx="150" cy="344" rx="26" ry="10" fill="#8f6b3f" opacity=".55"/>
<ellipse cx="496" cy="344" rx="26" ry="10" fill="#8f6b3f" opacity=".55"/>
</svg>